<mxfile host="app.diagrams.net" modified="2024-04-21T23:56:18.541Z" agent="Mozilla/5.0 (Windows NT 10.0; Win64; x64) AppleWebKit/537.36 (KHTML, like Gecko) Chrome/123.0.0.0 Safari/537.36" etag="SdzL1-fOd1HElTDJ9GOy" version="23.1.8" type="github">
  <diagram id="C5RBs43oDa-KdzZeNtuy" name="Page-1">
    <mxGraphModel dx="880" dy="1603" grid="1" gridSize="10" guides="1" tooltips="1" connect="1" arrows="1" fold="1" page="1" pageScale="1" pageWidth="827" pageHeight="1169" math="0" shadow="0">
      <root>
        <mxCell id="WIyWlLk6GJQsqaUBKTNV-0" />
        <mxCell id="WIyWlLk6GJQsqaUBKTNV-1" parent="WIyWlLk6GJQsqaUBKTNV-0" />
        <mxCell id="t8CyT_WlViXgpPUnVeqw-0" value="Inicio" style="strokeWidth=2;html=1;shape=mxgraph.flowchart.start_2;whiteSpace=wrap;" vertex="1" parent="WIyWlLk6GJQsqaUBKTNV-1">
          <mxGeometry x="380" width="40" height="40" as="geometry" />
        </mxCell>
        <mxCell id="t8CyT_WlViXgpPUnVeqw-1" value="Finalizar" style="strokeWidth=2;html=1;shape=mxgraph.flowchart.start_2;whiteSpace=wrap;" vertex="1" parent="WIyWlLk6GJQsqaUBKTNV-1">
          <mxGeometry x="375" y="440" width="50" height="50" as="geometry" />
        </mxCell>
        <mxCell id="t8CyT_WlViXgpPUnVeqw-13" style="edgeStyle=orthogonalEdgeStyle;rounded=0;orthogonalLoop=1;jettySize=auto;html=1;exitX=0.5;exitY=1;exitDx=0;exitDy=0;exitPerimeter=0;entryX=0.5;entryY=0;entryDx=0;entryDy=0;" edge="1" parent="WIyWlLk6GJQsqaUBKTNV-1" source="t8CyT_WlViXgpPUnVeqw-2" target="t8CyT_WlViXgpPUnVeqw-3">
          <mxGeometry relative="1" as="geometry" />
        </mxCell>
        <mxCell id="t8CyT_WlViXgpPUnVeqw-2" value="Administración" style="strokeWidth=2;html=1;shape=mxgraph.flowchart.start_1;whiteSpace=wrap;" vertex="1" parent="WIyWlLk6GJQsqaUBKTNV-1">
          <mxGeometry x="350" y="70" width="100" height="60" as="geometry" />
        </mxCell>
        <mxCell id="t8CyT_WlViXgpPUnVeqw-12" style="edgeStyle=orthogonalEdgeStyle;rounded=0;orthogonalLoop=1;jettySize=auto;html=1;exitX=0.5;exitY=1;exitDx=0;exitDy=0;entryX=0.5;entryY=0;entryDx=0;entryDy=0;" edge="1" parent="WIyWlLk6GJQsqaUBKTNV-1" source="t8CyT_WlViXgpPUnVeqw-3" target="t8CyT_WlViXgpPUnVeqw-4">
          <mxGeometry relative="1" as="geometry" />
        </mxCell>
        <mxCell id="t8CyT_WlViXgpPUnVeqw-3" value="Registrar información personal y académica" style="rounded=1;whiteSpace=wrap;html=1;absoluteArcSize=1;arcSize=14;strokeWidth=2;" vertex="1" parent="WIyWlLk6GJQsqaUBKTNV-1">
          <mxGeometry x="325" y="150" width="150" height="50" as="geometry" />
        </mxCell>
        <mxCell id="t8CyT_WlViXgpPUnVeqw-11" style="edgeStyle=orthogonalEdgeStyle;rounded=0;orthogonalLoop=1;jettySize=auto;html=1;exitX=0.5;exitY=1;exitDx=0;exitDy=0;entryX=0.5;entryY=0;entryDx=0;entryDy=0;" edge="1" parent="WIyWlLk6GJQsqaUBKTNV-1" source="t8CyT_WlViXgpPUnVeqw-4" target="t8CyT_WlViXgpPUnVeqw-5">
          <mxGeometry relative="1" as="geometry" />
        </mxCell>
        <mxCell id="t8CyT_WlViXgpPUnVeqw-4" value="Asignación de clases y horarios" style="rounded=1;whiteSpace=wrap;html=1;absoluteArcSize=1;arcSize=14;strokeWidth=2;" vertex="1" parent="WIyWlLk6GJQsqaUBKTNV-1">
          <mxGeometry x="325" y="220" width="150" height="50" as="geometry" />
        </mxCell>
        <mxCell id="t8CyT_WlViXgpPUnVeqw-10" style="edgeStyle=orthogonalEdgeStyle;rounded=0;orthogonalLoop=1;jettySize=auto;html=1;exitX=0.5;exitY=1;exitDx=0;exitDy=0;entryX=0.5;entryY=0;entryDx=0;entryDy=0;" edge="1" parent="WIyWlLk6GJQsqaUBKTNV-1" source="t8CyT_WlViXgpPUnVeqw-5" target="t8CyT_WlViXgpPUnVeqw-6">
          <mxGeometry relative="1" as="geometry" />
        </mxCell>
        <mxCell id="t8CyT_WlViXgpPUnVeqw-5" value="Asignación de fechas de evaluaciones" style="rounded=1;whiteSpace=wrap;html=1;absoluteArcSize=1;arcSize=14;strokeWidth=2;" vertex="1" parent="WIyWlLk6GJQsqaUBKTNV-1">
          <mxGeometry x="325" y="290" width="155" height="50" as="geometry" />
        </mxCell>
        <mxCell id="t8CyT_WlViXgpPUnVeqw-9" style="edgeStyle=orthogonalEdgeStyle;rounded=0;orthogonalLoop=1;jettySize=auto;html=1;" edge="1" parent="WIyWlLk6GJQsqaUBKTNV-1" source="t8CyT_WlViXgpPUnVeqw-6" target="t8CyT_WlViXgpPUnVeqw-1">
          <mxGeometry relative="1" as="geometry" />
        </mxCell>
        <mxCell id="t8CyT_WlViXgpPUnVeqw-6" value="Solicitud de seguimiento laboral" style="rounded=1;whiteSpace=wrap;html=1;absoluteArcSize=1;arcSize=14;strokeWidth=2;" vertex="1" parent="WIyWlLk6GJQsqaUBKTNV-1">
          <mxGeometry x="320" y="360" width="160" height="50" as="geometry" />
        </mxCell>
        <mxCell id="t8CyT_WlViXgpPUnVeqw-8" style="edgeStyle=orthogonalEdgeStyle;rounded=0;orthogonalLoop=1;jettySize=auto;html=1;entryX=1;entryY=0.5;entryDx=0;entryDy=0;" edge="1" parent="WIyWlLk6GJQsqaUBKTNV-1" source="t8CyT_WlViXgpPUnVeqw-7" target="t8CyT_WlViXgpPUnVeqw-6">
          <mxGeometry relative="1" as="geometry" />
        </mxCell>
        <mxCell id="t8CyT_WlViXgpPUnVeqw-7" value="Datos laborales" style="strokeWidth=2;html=1;shape=mxgraph.flowchart.document2;whiteSpace=wrap;size=0.25;" vertex="1" parent="WIyWlLk6GJQsqaUBKTNV-1">
          <mxGeometry x="540" y="355" width="100" height="60" as="geometry" />
        </mxCell>
        <mxCell id="t8CyT_WlViXgpPUnVeqw-14" style="edgeStyle=orthogonalEdgeStyle;rounded=0;orthogonalLoop=1;jettySize=auto;html=1;exitX=0.5;exitY=1;exitDx=0;exitDy=0;exitPerimeter=0;entryX=0.5;entryY=0;entryDx=0;entryDy=0;entryPerimeter=0;" edge="1" parent="WIyWlLk6GJQsqaUBKTNV-1" source="t8CyT_WlViXgpPUnVeqw-0" target="t8CyT_WlViXgpPUnVeqw-2">
          <mxGeometry relative="1" as="geometry" />
        </mxCell>
      </root>
    </mxGraphModel>
  </diagram>
</mxfile>
